<?xml version="1.0" standalone="no"?>
<svg xmlns:xlink="http://www.w3.org/1999/xlink" id="wave" style="transform:rotate(180deg); transition: 0.3s" viewBox="0 0 1440 490" version="1.1" xmlns="http://www.w3.org/2000/svg"><defs><linearGradient id="sw-gradient-0" x1="0" x2="0" y1="1" y2="0"><stop stop-color="rgba(249, 234, 133, 1)" offset="0%"/><stop stop-color="rgba(255, 179, 11, 1)" offset="100%"/></linearGradient></defs><path style="transform:translate(0, 0px); opacity:1" fill="url(#sw-gradient-0)" d="M0,0L26.7,16.3C53.3,33,107,65,160,65.3C213.3,65,267,33,320,32.7C373.3,33,427,65,480,114.3C533.3,163,587,229,640,269.5C693.3,310,747,327,800,343C853.3,359,907,376,960,375.7C1013.3,376,1067,359,1120,294C1173.3,229,1227,114,1280,57.2C1333.3,0,1387,0,1440,32.7C1493.3,65,1547,131,1600,155.2C1653.3,180,1707,163,1760,187.8C1813.3,212,1867,278,1920,261.3C1973.3,245,2027,147,2080,138.8C2133.3,131,2187,212,2240,220.5C2293.3,229,2347,163,2400,179.7C2453.3,196,2507,294,2560,318.5C2613.3,343,2667,294,2720,302.2C2773.3,310,2827,376,2880,383.8C2933.3,392,2987,343,3040,310.3C3093.3,278,3147,261,3200,228.7C3253.3,196,3307,147,3360,138.8C3413.3,131,3467,163,3520,204.2C3573.3,245,3627,294,3680,310.3C3733.3,327,3787,310,3813,302.2L3840,294L3840,490L3813.3,490C3786.7,490,3733,490,3680,490C3626.7,490,3573,490,3520,490C3466.7,490,3413,490,3360,490C3306.7,490,3253,490,3200,490C3146.7,490,3093,490,3040,490C2986.7,490,2933,490,2880,490C2826.7,490,2773,490,2720,490C2666.7,490,2613,490,2560,490C2506.7,490,2453,490,2400,490C2346.7,490,2293,490,2240,490C2186.7,490,2133,490,2080,490C2026.7,490,1973,490,1920,490C1866.7,490,1813,490,1760,490C1706.7,490,1653,490,1600,490C1546.7,490,1493,490,1440,490C1386.7,490,1333,490,1280,490C1226.7,490,1173,490,1120,490C1066.7,490,1013,490,960,490C906.7,490,853,490,800,490C746.7,490,693,490,640,490C586.7,490,533,490,480,490C426.7,490,373,490,320,490C266.7,490,213,490,160,490C106.7,490,53,490,27,490L0,490Z"/></svg>